<svg width="1200" height="800" viewBox="0 0 1200 800" fill="none" xmlns="http://www.w3.org/2000/svg">
  <defs>
    <linearGradient id="bg" x1="74" y1="44" x2="1104" y2="773" gradientUnits="userSpaceOnUse">
      <stop offset="0" stop-color="#111827"/>
      <stop offset="0.45" stop-color="#172554"/>
      <stop offset="1" stop-color="#4C1D95"/>
    </linearGradient>
    <linearGradient id="phone" x1="392" y1="128" x2="742" y2="685" gradientUnits="userSpaceOnUse">
      <stop offset="0" stop-color="#0F172A"/>
      <stop offset="1" stop-color="#020617"/>
    </linearGradient>
    <linearGradient id="screen" x1="424" y1="169" x2="709" y2="655" gradientUnits="userSpaceOnUse">
      <stop offset="0" stop-color="#1E293B"/>
      <stop offset="0.58" stop-color="#111827"/>
      <stop offset="1" stop-color="#0B1120"/>
    </linearGradient>
    <linearGradient id="accent" x1="442" y1="221" x2="719" y2="487" gradientUnits="userSpaceOnUse">
      <stop offset="0" stop-color="#67E8F9"/>
      <stop offset="0.52" stop-color="#60A5FA"/>
      <stop offset="1" stop-color="#A78BFA"/>
    </linearGradient>
    <filter id="softShadow" x="246" y="74" width="710" height="676" filterUnits="userSpaceOnUse" color-interpolation-filters="sRGB">
      <feFlood flood-opacity="0" result="BackgroundImageFix"/>
      <feColorMatrix in="SourceAlpha" type="matrix" values="0 0 0 0 0 0 0 0 0 0 0 0 0 0 0 0 0 0 127 0" result="hardAlpha"/>
      <feOffset dy="28"/>
      <feGaussianBlur stdDeviation="38"/>
      <feColorMatrix type="matrix" values="0 0 0 0 0.02 0 0 0 0 0.03 0 0 0 0 0.08 0 0 0 0.55 0"/>
      <feBlend mode="normal" in2="BackgroundImageFix" result="effect1_dropShadow"/>
      <feBlend mode="normal" in="SourceGraphic" in2="effect1_dropShadow" result="shape"/>
    </filter>
  </defs>

  <rect width="1200" height="800" rx="48" fill="url(#bg)"/>
  <path d="M0 690C180 628 292 667 442 611C601 551 671 440 862 478C1008 507 1080 610 1200 560V800H0V690Z" fill="#020617" fill-opacity="0.46"/>
  <circle cx="177" cy="139" r="142" fill="#38BDF8" fill-opacity="0.12"/>
  <circle cx="1064" cy="176" r="186" fill="#A855F7" fill-opacity="0.16"/>
  <circle cx="1004" cy="622" r="142" fill="#22D3EE" fill-opacity="0.11"/>

  <g opacity="0.45">
    <path d="M134 604H310" stroke="#93C5FD" stroke-width="2" stroke-linecap="round"/>
    <path d="M890 250H1070" stroke="#C4B5FD" stroke-width="2" stroke-linecap="round"/>
    <path d="M892 292H1010" stroke="#67E8F9" stroke-width="2" stroke-linecap="round"/>
    <path d="M156 646H246" stroke="#C4B5FD" stroke-width="2" stroke-linecap="round"/>
  </g>

  <g filter="url(#softShadow)">
    <rect x="378" y="96" width="376" height="614" rx="60" fill="url(#phone)" stroke="#FFFFFF" stroke-opacity="0.18" stroke-width="2"/>
    <rect x="410" y="145" width="312" height="518" rx="38" fill="url(#screen)" stroke="#FFFFFF" stroke-opacity="0.1"/>
    <rect x="505" y="119" width="122" height="12" rx="6" fill="#334155"/>

    <text x="445" y="211" fill="#F8FAFC" font-family="Inter, Arial, sans-serif" font-size="37" font-weight="800">Fichestu</text>
    <text x="447" y="244" fill="#93C5FD" font-family="Inter, Arial, sans-serif" font-size="18" font-weight="600">Android game platform</text>

    <rect x="441" y="282" width="250" height="94" rx="24" fill="url(#accent)" fill-opacity="0.95"/>
    <text x="469" y="320" fill="#020617" font-family="Inter, Arial, sans-serif" font-size="19" font-weight="800">Token Market</text>
    <text x="469" y="350" fill="#172554" font-family="Inter, Arial, sans-serif" font-size="15" font-weight="600">wallet + buy/sell flow</text>
    <circle cx="641" cy="328" r="25" fill="#FFFFFF" fill-opacity="0.9"/>
    <circle cx="641" cy="328" r="13" fill="#7C3AED"/>

    <rect x="441" y="402" width="112" height="112" rx="28" fill="#0F172A" stroke="#FFFFFF" stroke-opacity="0.12"/>
    <circle cx="497" cy="449" r="30" fill="#F8FAFC"/>
    <circle cx="497" cy="449" r="15" fill="#0EA5E9"/>
    <text x="468" y="490" fill="#CBD5E1" font-family="Inter, Arial, sans-serif" font-size="14" font-weight="700">BATTLE</text>

    <rect x="579" y="402" width="112" height="112" rx="28" fill="#0F172A" stroke="#FFFFFF" stroke-opacity="0.12"/>
    <path d="M635 431L654 464H616L635 431Z" fill="#A78BFA"/>
    <rect x="614" y="474" width="42" height="12" rx="6" fill="#38BDF8"/>
    <text x="608" y="490" fill="#CBD5E1" font-family="Inter, Arial, sans-serif" font-size="14" font-weight="700">PROFILE</text>

    <rect x="441" y="541" width="250" height="70" rx="22" fill="#0F172A" stroke="#FFFFFF" stroke-opacity="0.12"/>
    <circle cx="477" cy="576" r="11" fill="#22C55E"/>
    <text x="502" y="582" fill="#E2E8F0" font-family="Inter, Arial, sans-serif" font-size="18" font-weight="700">Realtime match room</text>
  </g>

  <g>
    <rect x="110" y="250" width="240" height="190" rx="34" fill="#020617" fill-opacity="0.72" stroke="#FFFFFF" stroke-opacity="0.12"/>
    <text x="143" y="304" fill="#F8FAFC" font-family="Inter, Arial, sans-serif" font-size="26" font-weight="800">Compose UI</text>
    <text x="143" y="344" fill="#CBD5E1" font-family="Inter, Arial, sans-serif" font-size="18" font-weight="600">Kotlin</text>
    <text x="143" y="376" fill="#CBD5E1" font-family="Inter, Arial, sans-serif" font-size="18" font-weight="600">Material 3</text>
    <text x="143" y="408" fill="#CBD5E1" font-family="Inter, Arial, sans-serif" font-size="18" font-weight="600">Retrofit + OkHttp</text>
  </g>

  <g>
    <rect x="815" y="390" width="276" height="210" rx="34" fill="#020617" fill-opacity="0.72" stroke="#FFFFFF" stroke-opacity="0.12"/>
    <text x="850" y="445" fill="#F8FAFC" font-family="Inter, Arial, sans-serif" font-size="26" font-weight="800">Spring Backend</text>
    <text x="850" y="485" fill="#CBD5E1" font-family="Inter, Arial, sans-serif" font-size="18" font-weight="600">REST + WebSocket</text>
    <text x="850" y="517" fill="#CBD5E1" font-family="Inter, Arial, sans-serif" font-size="18" font-weight="600">JWT Security</text>
    <text x="850" y="549" fill="#CBD5E1" font-family="Inter, Arial, sans-serif" font-size="18" font-weight="600">Flyway DB migrations</text>
  </g>

  <path d="M350 349C376 335 387 328 410 323" stroke="#60A5FA" stroke-width="4" stroke-linecap="round" stroke-dasharray="10 14"/>
  <path d="M722 568C758 555 780 538 815 505" stroke="#A78BFA" stroke-width="4" stroke-linecap="round" stroke-dasharray="10 14"/>
  <circle cx="351" cy="349" r="7" fill="#60A5FA"/>
  <circle cx="815" cy="505" r="7" fill="#A78BFA"/>
</svg>
